<svg xmlns="http://www.w3.org/2000/svg" id="svg8" width="1540" height="427" version="1.1" viewBox="0 0 407.458 112.977"><metadata id="metadata5"/><g id="layer1" transform="translate(0,-184.02291)"><g id="g5158"><path id="path5071" d="M 1306.2734 427 L 1423.248 427 L 1540 265.33398 L 1540 103.35547 L 1306.2734 427 z" transform="matrix(0.26458333,0,0,0.26458333,0,184.02291)" style="color:#000;clip-rule:nonzero;display:inline;overflow:visible;visibility:visible;opacity:1;isolation:auto;mix-blend-mode:normal;color-interpolation:sRGB;color-interpolation-filters:linearRGB;solid-color:#000;solid-opacity:1;fill:#6c6c6c;fill-opacity:1;fill-rule:evenodd;stroke:none;stroke-width:.40925127;color-rendering:auto;image-rendering:auto;shape-rendering:auto;text-rendering:auto;enable-background:accumulate"/><path id="path5067" d="M 1072.3535 427 L 1189.3281 427 L 1497.6953 0 L 1380.7227 0 L 1072.3535 427 z" transform="matrix(0.26458333,0,0,0.26458333,0,184.02291)" style="color:#000;clip-rule:nonzero;display:inline;overflow:visible;visibility:visible;opacity:1;isolation:auto;mix-blend-mode:normal;color-interpolation:sRGB;color-interpolation-filters:linearRGB;solid-color:#000;solid-opacity:1;fill:#6c6c6c;fill-opacity:1;fill-rule:evenodd;stroke:none;stroke-width:.40925127;color-rendering:auto;image-rendering:auto;shape-rendering:auto;text-rendering:auto;enable-background:accumulate"/><path id="path5063" d="M 838.43359 427 L 955.40625 427 L 1263.7754 0 L 1146.8008 0 L 838.43359 427 z" transform="matrix(0.26458333,0,0,0.26458333,0,184.02291)" style="color:#000;clip-rule:nonzero;display:inline;overflow:visible;visibility:visible;opacity:1;isolation:auto;mix-blend-mode:normal;color-interpolation:sRGB;color-interpolation-filters:linearRGB;solid-color:#000;solid-opacity:1;fill:#6c6c6c;fill-opacity:1;fill-rule:evenodd;stroke:none;stroke-width:.40925127;color-rendering:auto;image-rendering:auto;shape-rendering:auto;text-rendering:auto;enable-background:accumulate"/><path id="path5059" d="M 604.51367 427 L 721.49023 427 L 1029.8574 0 L 912.88086 0 L 604.51367 427 z" transform="matrix(0.26458333,0,0,0.26458333,0,184.02291)" style="color:#000;clip-rule:nonzero;display:inline;overflow:visible;visibility:visible;opacity:1;isolation:auto;mix-blend-mode:normal;color-interpolation:sRGB;color-interpolation-filters:linearRGB;solid-color:#000;solid-opacity:1;fill:#6c6c6c;fill-opacity:1;fill-rule:evenodd;stroke:none;stroke-width:.40925127;color-rendering:auto;image-rendering:auto;shape-rendering:auto;text-rendering:auto;enable-background:accumulate"/><path id="path5055" d="M 370.59375 427 L 487.56836 427 L 795.93555 0 L 678.96094 0 L 370.59375 427 z" transform="matrix(0.26458333,0,0,0.26458333,0,184.02291)" style="color:#000;clip-rule:nonzero;display:inline;overflow:visible;visibility:visible;opacity:1;isolation:auto;mix-blend-mode:normal;color-interpolation:sRGB;color-interpolation-filters:linearRGB;solid-color:#000;solid-opacity:1;fill:#6c6c6c;fill-opacity:1;fill-rule:evenodd;stroke:none;stroke-width:.40925127;color-rendering:auto;image-rendering:auto;shape-rendering:auto;text-rendering:auto;enable-background:accumulate"/><path id="path5051" d="M 136.67383 427 L 253.64844 427 L 562.01758 0 L 445.04297 0 L 136.67383 427 z" transform="matrix(0.26458333,0,0,0.26458333,0,184.02291)" style="color:#000;clip-rule:nonzero;display:inline;overflow:visible;visibility:visible;opacity:1;isolation:auto;mix-blend-mode:normal;color-interpolation:sRGB;color-interpolation-filters:linearRGB;solid-color:#000;solid-opacity:1;fill:#6c6c6c;fill-opacity:1;fill-rule:evenodd;stroke:none;stroke-width:.40925127;color-rendering:auto;image-rendering:auto;shape-rendering:auto;text-rendering:auto;enable-background:accumulate"/><path id="path5047" d="M 0 292.3418 L 0 427 L 19.726562 427 L 328.0957 0 L 211.12109 0 L 0 292.3418 z" transform="matrix(0.26458333,0,0,0.26458333,0,184.02291)" style="color:#000;clip-rule:nonzero;display:inline;overflow:visible;visibility:visible;opacity:1;isolation:auto;mix-blend-mode:normal;color-interpolation:sRGB;color-interpolation-filters:linearRGB;solid-color:#000;solid-opacity:1;fill:#6c6c6c;fill-opacity:1;fill-rule:evenodd;stroke:none;stroke-width:.40925127;color-rendering:auto;image-rendering:auto;shape-rendering:auto;text-rendering:auto;enable-background:accumulate"/><path id="path5045" d="M 94.175781 0 L 0 0 L 0 130.40625 L 94.175781 0 z" transform="matrix(0.26458333,0,0,0.26458333,0,184.02291)" style="color:#000;clip-rule:nonzero;display:inline;overflow:visible;visibility:visible;opacity:1;isolation:auto;mix-blend-mode:normal;color-interpolation:sRGB;color-interpolation-filters:linearRGB;solid-color:#000;solid-opacity:1;fill:#6c6c6c;fill-opacity:1;fill-rule:evenodd;stroke:none;stroke-width:.40925127;color-rendering:auto;image-rendering:auto;shape-rendering:auto;text-rendering:auto;enable-background:accumulate"/><path id="path5028" d="M 1423.2266 427 L 1540 427 L 1540 265.30273 L 1423.2266 427 z" transform="matrix(0.26458333,0,0,0.26458333,0,184.02291)" style="color:#000;clip-rule:nonzero;display:inline;overflow:visible;visibility:visible;opacity:1;isolation:auto;mix-blend-mode:normal;color-interpolation:sRGB;color-interpolation-filters:linearRGB;solid-color:#000;solid-opacity:1;fill:#999;fill-opacity:1;fill-rule:evenodd;stroke:none;stroke-width:.40925127;color-rendering:auto;image-rendering:auto;shape-rendering:auto;text-rendering:auto;enable-background:accumulate"/><path id="path5024" d="M 1189.3066 427 L 1306.2812 427 L 1540 103.36719 L 1540 0 L 1497.6758 0 L 1189.3066 427 z" transform="matrix(0.26458333,0,0,0.26458333,0,184.02291)" style="color:#000;clip-rule:nonzero;display:inline;overflow:visible;visibility:visible;opacity:1;isolation:auto;mix-blend-mode:normal;color-interpolation:sRGB;color-interpolation-filters:linearRGB;solid-color:#000;solid-opacity:1;fill:#999;fill-opacity:1;fill-rule:evenodd;stroke:none;stroke-width:.40925127;color-rendering:auto;image-rendering:auto;shape-rendering:auto;text-rendering:auto;enable-background:accumulate"/><path id="path5020" d="M 955.38672 427 L 1072.3613 427 L 1380.7305 0 L 1263.7539 0 L 955.38672 427 z" transform="matrix(0.26458333,0,0,0.26458333,0,184.02291)" style="color:#000;clip-rule:nonzero;display:inline;overflow:visible;visibility:visible;opacity:1;isolation:auto;mix-blend-mode:normal;color-interpolation:sRGB;color-interpolation-filters:linearRGB;solid-color:#000;solid-opacity:1;fill:#999;fill-opacity:1;fill-rule:evenodd;stroke:none;stroke-width:.40925127;color-rendering:auto;image-rendering:auto;shape-rendering:auto;text-rendering:auto;enable-background:accumulate"/><path id="path5016" d="M 721.4668 427 L 838.44141 427 L 1146.8105 0 L 1029.8359 0 L 721.4668 427 z" transform="matrix(0.26458333,0,0,0.26458333,0,184.02291)" style="color:#000;clip-rule:nonzero;display:inline;overflow:visible;visibility:visible;opacity:1;isolation:auto;mix-blend-mode:normal;color-interpolation:sRGB;color-interpolation-filters:linearRGB;solid-color:#000;solid-opacity:1;fill:#999;fill-opacity:1;fill-rule:evenodd;stroke:none;stroke-width:.40925127;color-rendering:auto;image-rendering:auto;shape-rendering:auto;text-rendering:auto;enable-background:accumulate"/><path id="path5012" d="M 487.54688 427 L 604.52148 427 L 912.89062 0 L 795.91406 0 L 487.54688 427 z" transform="matrix(0.26458333,0,0,0.26458333,0,184.02291)" style="color:#000;clip-rule:nonzero;display:inline;overflow:visible;visibility:visible;opacity:1;isolation:auto;mix-blend-mode:normal;color-interpolation:sRGB;color-interpolation-filters:linearRGB;solid-color:#000;solid-opacity:1;fill:#999;fill-opacity:1;fill-rule:evenodd;stroke:none;stroke-width:.40925127;color-rendering:auto;image-rendering:auto;shape-rendering:auto;text-rendering:auto;enable-background:accumulate"/><path id="path5008" d="M 253.62695 427 L 370.60156 427 L 678.96875 0 L 561.99414 0 L 253.62695 427 z" transform="matrix(0.26458333,0,0,0.26458333,0,184.02291)" style="color:#000;clip-rule:nonzero;display:inline;overflow:visible;visibility:visible;opacity:1;isolation:auto;mix-blend-mode:normal;color-interpolation:sRGB;color-interpolation-filters:linearRGB;solid-color:#000;solid-opacity:1;fill:#999;fill-opacity:1;fill-rule:evenodd;stroke:none;stroke-width:.40925127;color-rendering:auto;image-rendering:auto;shape-rendering:auto;text-rendering:auto;enable-background:accumulate"/><path id="path5004" d="M 19.707031 427 L 136.67969 427 L 445.04883 0 L 328.07422 0 L 19.707031 427 z" transform="matrix(0.26458333,0,0,0.26458333,0,184.02291)" style="color:#000;clip-rule:nonzero;display:inline;overflow:visible;visibility:visible;opacity:1;isolation:auto;mix-blend-mode:normal;color-interpolation:sRGB;color-interpolation-filters:linearRGB;solid-color:#000;solid-opacity:1;fill:#999;fill-opacity:1;fill-rule:evenodd;stroke:none;stroke-width:.40925127;color-rendering:auto;image-rendering:auto;shape-rendering:auto;text-rendering:auto;enable-background:accumulate"/><path id="path5000" d="M 211.13086 0 L 94.15625 0 L 0 130.37695 L 0 292.35352 L 211.13086 0 z" transform="matrix(0.26458333,0,0,0.26458333,0,184.02291)" style="color:#000;clip-rule:nonzero;display:inline;overflow:visible;visibility:visible;opacity:1;isolation:auto;mix-blend-mode:normal;color-interpolation:sRGB;color-interpolation-filters:linearRGB;solid-color:#000;solid-opacity:1;fill:#999;fill-opacity:1;fill-rule:evenodd;stroke:none;stroke-width:.40925127;color-rendering:auto;image-rendering:auto;shape-rendering:auto;text-rendering:auto;enable-background:accumulate"/></g></g></svg>